<mxfile host="Electron" agent="Mozilla/5.0 (Windows NT 10.0; Win64; x64) AppleWebKit/537.36 (KHTML, like Gecko) draw.io/28.0.6 Chrome/138.0.7204.100 Electron/37.2.3 Safari/537.36" version="28.0.6">
  <diagram name="Page-1" id="sLEIrWUBmfiYSfG0HRBh">
    <mxGraphModel dx="1042" dy="626" grid="1" gridSize="10" guides="1" tooltips="1" connect="1" arrows="1" fold="1" page="1" pageScale="1" pageWidth="1100" pageHeight="850" math="0" shadow="0">
      <root>
        <mxCell id="0" />
        <mxCell id="1" parent="0" />
        <mxCell id="mGjX7mP2gZ3KxgDMHp8h-2" value="Data Folw Diagram" style="text;html=1;align=center;verticalAlign=middle;whiteSpace=wrap;rounded=0;fontStyle=1;fontSize=24;" parent="1" vertex="1">
          <mxGeometry x="40" y="50" width="240" height="30" as="geometry" />
        </mxCell>
        <mxCell id="mGjX7mP2gZ3KxgDMHp8h-3" value="" style="rounded=0;whiteSpace=wrap;html=1;dashed=1;fillColor=none;" parent="1" vertex="1">
          <mxGeometry x="80" y="120" width="160" height="480" as="geometry" />
        </mxCell>
        <mxCell id="mGjX7mP2gZ3KxgDMHp8h-4" value="" style="rounded=1;whiteSpace=wrap;html=1;fillColor=none;strokeColor=#d79b00;" parent="1" vertex="1">
          <mxGeometry x="320" y="160" width="160" height="440" as="geometry" />
        </mxCell>
        <mxCell id="mGjX7mP2gZ3KxgDMHp8h-5" value="" style="rounded=1;whiteSpace=wrap;html=1;fillColor=none;fontColor=#333333;strokeColor=#666666;" parent="1" vertex="1">
          <mxGeometry x="560" y="160" width="160" height="440" as="geometry" />
        </mxCell>
        <mxCell id="mGjX7mP2gZ3KxgDMHp8h-6" value="" style="rounded=1;whiteSpace=wrap;html=1;fillColor=none;strokeColor=#d6b656;" parent="1" vertex="1">
          <mxGeometry x="800" y="160" width="160" height="440" as="geometry" />
        </mxCell>
        <mxCell id="mGjX7mP2gZ3KxgDMHp8h-7" value="&lt;b&gt;&lt;font style=&quot;font-size: 24px;&quot;&gt;Source&lt;/font&gt;&lt;/b&gt;" style="text;html=1;align=center;verticalAlign=middle;whiteSpace=wrap;rounded=0;fillColor=default;" parent="1" vertex="1">
          <mxGeometry x="120" y="100" width="80" height="30" as="geometry" />
        </mxCell>
        <mxCell id="mGjX7mP2gZ3KxgDMHp8h-22" style="edgeStyle=orthogonalEdgeStyle;rounded=0;orthogonalLoop=1;jettySize=auto;html=1;entryX=0;entryY=0.5;entryDx=0;entryDy=0;" parent="1" source="mGjX7mP2gZ3KxgDMHp8h-8" target="mGjX7mP2gZ3KxgDMHp8h-16" edge="1">
          <mxGeometry relative="1" as="geometry" />
        </mxCell>
        <mxCell id="mGjX7mP2gZ3KxgDMHp8h-23" style="edgeStyle=orthogonalEdgeStyle;rounded=0;orthogonalLoop=1;jettySize=auto;html=1;entryX=0;entryY=0.5;entryDx=0;entryDy=0;" parent="1" source="mGjX7mP2gZ3KxgDMHp8h-8" target="mGjX7mP2gZ3KxgDMHp8h-17" edge="1">
          <mxGeometry relative="1" as="geometry" />
        </mxCell>
        <mxCell id="mGjX7mP2gZ3KxgDMHp8h-24" style="edgeStyle=orthogonalEdgeStyle;rounded=0;orthogonalLoop=1;jettySize=auto;html=1;entryX=0;entryY=0.5;entryDx=0;entryDy=0;" parent="1" source="mGjX7mP2gZ3KxgDMHp8h-8" target="mGjX7mP2gZ3KxgDMHp8h-18" edge="1">
          <mxGeometry relative="1" as="geometry" />
        </mxCell>
        <mxCell id="mGjX7mP2gZ3KxgDMHp8h-8" value="&lt;font style=&quot;font-size: 14px;&quot;&gt;&lt;b&gt;ERP&lt;/b&gt;&lt;/font&gt;" style="image;aspect=fixed;html=1;points=[];align=center;fontSize=12;image=img/lib/azure2/general/Folder_Blank.svg;" parent="1" vertex="1">
          <mxGeometry x="120" y="437" width="69" height="56.00000000000001" as="geometry" />
        </mxCell>
        <mxCell id="mGjX7mP2gZ3KxgDMHp8h-19" style="edgeStyle=orthogonalEdgeStyle;rounded=0;orthogonalLoop=1;jettySize=auto;html=1;entryX=0;entryY=0.5;entryDx=0;entryDy=0;" parent="1" source="mGjX7mP2gZ3KxgDMHp8h-9" target="mGjX7mP2gZ3KxgDMHp8h-14" edge="1">
          <mxGeometry relative="1" as="geometry" />
        </mxCell>
        <mxCell id="mGjX7mP2gZ3KxgDMHp8h-20" style="edgeStyle=orthogonalEdgeStyle;rounded=0;orthogonalLoop=1;jettySize=auto;html=1;entryX=0;entryY=0.5;entryDx=0;entryDy=0;" parent="1" source="mGjX7mP2gZ3KxgDMHp8h-9" target="mGjX7mP2gZ3KxgDMHp8h-13" edge="1">
          <mxGeometry relative="1" as="geometry" />
        </mxCell>
        <mxCell id="mGjX7mP2gZ3KxgDMHp8h-21" style="edgeStyle=orthogonalEdgeStyle;rounded=0;orthogonalLoop=1;jettySize=auto;html=1;entryX=0;entryY=0.5;entryDx=0;entryDy=0;" parent="1" source="mGjX7mP2gZ3KxgDMHp8h-9" target="mGjX7mP2gZ3KxgDMHp8h-15" edge="1">
          <mxGeometry relative="1" as="geometry" />
        </mxCell>
        <mxCell id="mGjX7mP2gZ3KxgDMHp8h-9" value="&lt;b&gt;&lt;font style=&quot;font-size: 14px;&quot;&gt;CRM&lt;/font&gt;&lt;/b&gt;" style="image;aspect=fixed;html=1;points=[];align=center;fontSize=12;image=img/lib/azure2/general/Folder_Blank.svg;" parent="1" vertex="1">
          <mxGeometry x="120" y="237" width="69" height="56.00000000000001" as="geometry" />
        </mxCell>
        <mxCell id="mGjX7mP2gZ3KxgDMHp8h-10" value="&lt;b&gt;&lt;font style=&quot;font-size: 15px;&quot;&gt;Bronze Layer&lt;/font&gt;&lt;/b&gt;" style="rounded=1;whiteSpace=wrap;html=1;fillColor=#ffe6cc;strokeColor=#d79b00;" parent="1" vertex="1">
          <mxGeometry x="320" y="90" width="160" height="60" as="geometry" />
        </mxCell>
        <mxCell id="mGjX7mP2gZ3KxgDMHp8h-11" value="&lt;b&gt;&lt;font style=&quot;font-size: 15px;&quot;&gt;Sliver Layer&lt;/font&gt;&lt;/b&gt;" style="rounded=1;whiteSpace=wrap;html=1;fillColor=#f5f5f5;strokeColor=#666666;fontColor=#333333;" parent="1" vertex="1">
          <mxGeometry x="560" y="90" width="160" height="60" as="geometry" />
        </mxCell>
        <mxCell id="mGjX7mP2gZ3KxgDMHp8h-12" value="&lt;b&gt;&lt;font style=&quot;font-size: 15px;&quot;&gt;Gold Layer&lt;/font&gt;&lt;/b&gt;" style="rounded=1;whiteSpace=wrap;html=1;fillColor=#fff2cc;strokeColor=#d6b656;" parent="1" vertex="1">
          <mxGeometry x="800" y="90" width="160" height="60" as="geometry" />
        </mxCell>
        <mxCell id="jb_QUc4-XuGrBG6xz3GN-10" style="edgeStyle=orthogonalEdgeStyle;rounded=0;orthogonalLoop=1;jettySize=auto;html=1;entryX=0;entryY=0.5;entryDx=0;entryDy=0;" parent="1" source="mGjX7mP2gZ3KxgDMHp8h-13" target="jb_QUc4-XuGrBG6xz3GN-7" edge="1">
          <mxGeometry relative="1" as="geometry" />
        </mxCell>
        <mxCell id="mGjX7mP2gZ3KxgDMHp8h-13" value="crm_sales_details" style="rounded=1;whiteSpace=wrap;html=1;fillColor=#ffe6cc;strokeColor=#d79b00;" parent="1" vertex="1">
          <mxGeometry x="345" y="210" width="110" height="30" as="geometry" />
        </mxCell>
        <mxCell id="jb_QUc4-XuGrBG6xz3GN-11" style="edgeStyle=orthogonalEdgeStyle;rounded=0;orthogonalLoop=1;jettySize=auto;html=1;entryX=0;entryY=0.5;entryDx=0;entryDy=0;" parent="1" source="mGjX7mP2gZ3KxgDMHp8h-14" target="jb_QUc4-XuGrBG6xz3GN-8" edge="1">
          <mxGeometry relative="1" as="geometry" />
        </mxCell>
        <mxCell id="mGjX7mP2gZ3KxgDMHp8h-14" value="crm_cust_info" style="rounded=1;whiteSpace=wrap;html=1;fillColor=#ffe6cc;strokeColor=#d79b00;" parent="1" vertex="1">
          <mxGeometry x="345" y="250" width="110" height="30" as="geometry" />
        </mxCell>
        <mxCell id="jb_QUc4-XuGrBG6xz3GN-12" style="edgeStyle=orthogonalEdgeStyle;rounded=0;orthogonalLoop=1;jettySize=auto;html=1;entryX=0;entryY=0.5;entryDx=0;entryDy=0;" parent="1" source="mGjX7mP2gZ3KxgDMHp8h-15" target="jb_QUc4-XuGrBG6xz3GN-9" edge="1">
          <mxGeometry relative="1" as="geometry" />
        </mxCell>
        <mxCell id="mGjX7mP2gZ3KxgDMHp8h-15" value="crm_prd_info" style="rounded=1;whiteSpace=wrap;html=1;fillColor=#ffe6cc;strokeColor=#d79b00;" parent="1" vertex="1">
          <mxGeometry x="345" y="290" width="110" height="30" as="geometry" />
        </mxCell>
        <mxCell id="jb_QUc4-XuGrBG6xz3GN-13" style="edgeStyle=orthogonalEdgeStyle;rounded=0;orthogonalLoop=1;jettySize=auto;html=1;" parent="1" source="mGjX7mP2gZ3KxgDMHp8h-16" target="jb_QUc4-XuGrBG6xz3GN-1" edge="1">
          <mxGeometry relative="1" as="geometry" />
        </mxCell>
        <mxCell id="mGjX7mP2gZ3KxgDMHp8h-16" value="erp_cuz_az12" style="rounded=1;whiteSpace=wrap;html=1;fillColor=#ffe6cc;strokeColor=#d79b00;" parent="1" vertex="1">
          <mxGeometry x="345" y="410" width="110" height="30" as="geometry" />
        </mxCell>
        <mxCell id="jb_QUc4-XuGrBG6xz3GN-14" style="edgeStyle=orthogonalEdgeStyle;rounded=0;orthogonalLoop=1;jettySize=auto;html=1;entryX=0;entryY=0.5;entryDx=0;entryDy=0;" parent="1" source="mGjX7mP2gZ3KxgDMHp8h-17" target="jb_QUc4-XuGrBG6xz3GN-2" edge="1">
          <mxGeometry relative="1" as="geometry" />
        </mxCell>
        <mxCell id="mGjX7mP2gZ3KxgDMHp8h-17" value="erp_loc_a101" style="rounded=1;whiteSpace=wrap;html=1;fillColor=#ffe6cc;strokeColor=#d79b00;" parent="1" vertex="1">
          <mxGeometry x="345" y="450" width="110" height="30" as="geometry" />
        </mxCell>
        <mxCell id="jb_QUc4-XuGrBG6xz3GN-15" style="edgeStyle=orthogonalEdgeStyle;rounded=0;orthogonalLoop=1;jettySize=auto;html=1;entryX=0;entryY=0.5;entryDx=0;entryDy=0;" parent="1" source="mGjX7mP2gZ3KxgDMHp8h-18" target="jb_QUc4-XuGrBG6xz3GN-3" edge="1">
          <mxGeometry relative="1" as="geometry" />
        </mxCell>
        <mxCell id="mGjX7mP2gZ3KxgDMHp8h-18" value="erp_px_cat_g1v2" style="rounded=1;whiteSpace=wrap;html=1;fillColor=#ffe6cc;strokeColor=#d79b00;" parent="1" vertex="1">
          <mxGeometry x="345" y="490" width="110" height="30" as="geometry" />
        </mxCell>
        <mxCell id="mGjX7mP2gZ3KxgDMHp8h-25" value="" style="image;aspect=fixed;html=1;points=[];align=center;fontSize=12;image=img/lib/azure2/general/File.svg;" parent="1" vertex="1">
          <mxGeometry x="175.64999999999998" y="270" width="24.35" height="30" as="geometry" />
        </mxCell>
        <mxCell id="mGjX7mP2gZ3KxgDMHp8h-26" value="" style="image;aspect=fixed;html=1;points=[];align=center;fontSize=12;image=img/lib/azure2/general/File.svg;" parent="1" vertex="1">
          <mxGeometry x="175.65" y="480" width="24.35" height="30" as="geometry" />
        </mxCell>
        <mxCell id="jb_QUc4-XuGrBG6xz3GN-1" value="&lt;span style=&quot;color: rgb(0, 0, 0);&quot;&gt;erp_cuz_az12&lt;/span&gt;" style="rounded=1;whiteSpace=wrap;html=1;fillColor=#f5f5f5;strokeColor=#666666;fontColor=#333333;" parent="1" vertex="1">
          <mxGeometry x="585" y="410" width="110" height="30" as="geometry" />
        </mxCell>
        <mxCell id="jb_QUc4-XuGrBG6xz3GN-2" value="&lt;span style=&quot;color: rgb(0, 0, 0);&quot;&gt;erp_loc_a101&lt;/span&gt;" style="rounded=1;whiteSpace=wrap;html=1;fillColor=#f5f5f5;strokeColor=#666666;fontColor=#333333;" parent="1" vertex="1">
          <mxGeometry x="585" y="450" width="110" height="30" as="geometry" />
        </mxCell>
        <mxCell id="jb_QUc4-XuGrBG6xz3GN-3" value="&lt;span style=&quot;color: rgb(0, 0, 0);&quot;&gt;erp_px_cat_g1v2&lt;/span&gt;" style="rounded=1;whiteSpace=wrap;html=1;fillColor=#f5f5f5;strokeColor=#666666;fontColor=#333333;" parent="1" vertex="1">
          <mxGeometry x="585" y="490" width="110" height="30" as="geometry" />
        </mxCell>
        <mxCell id="jb_QUc4-XuGrBG6xz3GN-7" value="crm_sales_details" style="rounded=1;whiteSpace=wrap;html=1;fillColor=#f5f5f5;strokeColor=#666666;fontColor=#333333;" parent="1" vertex="1">
          <mxGeometry x="585" y="210" width="110" height="30" as="geometry" />
        </mxCell>
        <mxCell id="jb_QUc4-XuGrBG6xz3GN-8" value="crm_cust_info" style="rounded=1;whiteSpace=wrap;html=1;fillColor=#f5f5f5;strokeColor=#666666;fontColor=#333333;" parent="1" vertex="1">
          <mxGeometry x="585" y="250" width="110" height="30" as="geometry" />
        </mxCell>
        <mxCell id="jb_QUc4-XuGrBG6xz3GN-9" value="crm_prd_info" style="rounded=1;whiteSpace=wrap;html=1;fillColor=#f5f5f5;strokeColor=#666666;fontColor=#333333;" parent="1" vertex="1">
          <mxGeometry x="585" y="290" width="110" height="30" as="geometry" />
        </mxCell>
        <mxCell id="a6_wr9gJ4MU0KsXzNupY-1" value="fact_sales" style="rounded=1;whiteSpace=wrap;html=1;fillColor=#fff2cc;strokeColor=#d6b656;" vertex="1" parent="1">
          <mxGeometry x="825" y="210" width="110" height="30" as="geometry" />
        </mxCell>
        <mxCell id="a6_wr9gJ4MU0KsXzNupY-2" value="dim_customers" style="rounded=1;whiteSpace=wrap;html=1;fillColor=#fff2cc;strokeColor=#d6b656;" vertex="1" parent="1">
          <mxGeometry x="825" y="320" width="110" height="30" as="geometry" />
        </mxCell>
        <mxCell id="a6_wr9gJ4MU0KsXzNupY-3" value="dim_products" style="rounded=1;whiteSpace=wrap;html=1;fillColor=#fff2cc;strokeColor=#d6b656;" vertex="1" parent="1">
          <mxGeometry x="825" y="410" width="110" height="30" as="geometry" />
        </mxCell>
        <mxCell id="a6_wr9gJ4MU0KsXzNupY-13" value="" style="endArrow=classic;html=1;rounded=0;exitX=1;exitY=0.5;exitDx=0;exitDy=0;entryX=0;entryY=0.5;entryDx=0;entryDy=0;" edge="1" parent="1" source="jb_QUc4-XuGrBG6xz3GN-7" target="a6_wr9gJ4MU0KsXzNupY-1">
          <mxGeometry width="50" height="50" relative="1" as="geometry">
            <mxPoint x="740" y="240" as="sourcePoint" />
            <mxPoint x="790" y="190" as="targetPoint" />
          </mxGeometry>
        </mxCell>
        <mxCell id="a6_wr9gJ4MU0KsXzNupY-14" value="" style="endArrow=classic;html=1;rounded=0;entryX=0;entryY=0.25;entryDx=0;entryDy=0;exitX=1;exitY=0.5;exitDx=0;exitDy=0;jumpStyle=gap;" edge="1" parent="1" source="jb_QUc4-XuGrBG6xz3GN-8" target="a6_wr9gJ4MU0KsXzNupY-2">
          <mxGeometry width="50" height="50" relative="1" as="geometry">
            <mxPoint x="720" y="265" as="sourcePoint" />
            <mxPoint x="850" y="264.5" as="targetPoint" />
          </mxGeometry>
        </mxCell>
        <mxCell id="a6_wr9gJ4MU0KsXzNupY-15" value="" style="endArrow=classic;html=1;rounded=0;entryX=0;entryY=0.5;entryDx=0;entryDy=0;exitX=1;exitY=0.5;exitDx=0;exitDy=0;jumpStyle=gap;" edge="1" parent="1" source="jb_QUc4-XuGrBG6xz3GN-9" target="a6_wr9gJ4MU0KsXzNupY-3">
          <mxGeometry width="50" height="50" relative="1" as="geometry">
            <mxPoint x="730" y="337" as="sourcePoint" />
            <mxPoint x="860" y="410" as="targetPoint" />
          </mxGeometry>
        </mxCell>
        <mxCell id="a6_wr9gJ4MU0KsXzNupY-16" value="" style="endArrow=classic;html=1;rounded=0;exitX=1;exitY=0.5;exitDx=0;exitDy=0;entryX=0;entryY=0.5;entryDx=0;entryDy=0;jumpStyle=gap;" edge="1" parent="1" source="jb_QUc4-XuGrBG6xz3GN-1" target="a6_wr9gJ4MU0KsXzNupY-2">
          <mxGeometry width="50" height="50" relative="1" as="geometry">
            <mxPoint x="720" y="424" as="sourcePoint" />
            <mxPoint x="850" y="424" as="targetPoint" />
          </mxGeometry>
        </mxCell>
        <mxCell id="a6_wr9gJ4MU0KsXzNupY-17" value="" style="endArrow=classic;html=1;rounded=0;exitX=1;exitY=0.5;exitDx=0;exitDy=0;entryX=0;entryY=0.75;entryDx=0;entryDy=0;jumpStyle=gap;" edge="1" parent="1" source="jb_QUc4-XuGrBG6xz3GN-2" target="a6_wr9gJ4MU0KsXzNupY-2">
          <mxGeometry width="50" height="50" relative="1" as="geometry">
            <mxPoint x="720" y="450" as="sourcePoint" />
            <mxPoint x="850" y="370" as="targetPoint" />
          </mxGeometry>
        </mxCell>
        <mxCell id="a6_wr9gJ4MU0KsXzNupY-18" value="" style="endArrow=classic;html=1;rounded=0;exitX=1;exitY=0.5;exitDx=0;exitDy=0;entryX=0;entryY=0.5;entryDx=0;entryDy=0;jumpStyle=gap;" edge="1" parent="1" source="jb_QUc4-XuGrBG6xz3GN-3" target="a6_wr9gJ4MU0KsXzNupY-3">
          <mxGeometry width="50" height="50" relative="1" as="geometry">
            <mxPoint x="740" y="532" as="sourcePoint" />
            <mxPoint x="870" y="420" as="targetPoint" />
          </mxGeometry>
        </mxCell>
      </root>
    </mxGraphModel>
  </diagram>
</mxfile>
